<?xml version="1.0" encoding="UTF-8" standalone="no"?>
<!-- Created with Inkscape (http://www.inkscape.org/) -->

<svg
   xmlns:dc="http://purl.org/dc/elements/1.1/"
   xmlns:cc="http://creativecommons.org/ns#"
   xmlns:rdf="http://www.w3.org/1999/02/22-rdf-syntax-ns#"
   xmlns:svg="http://www.w3.org/2000/svg"
   xmlns="http://www.w3.org/2000/svg"
   xmlns:sodipodi="http://sodipodi.sourceforge.net/DTD/sodipodi-0.dtd"
   xmlns:inkscape="http://www.inkscape.org/namespaces/inkscape"
   width="155"
   height="175"
   id="svg3845"
   version="1.1"
   inkscape:version="0.48.5 r10040"
   sodipodi:docname="logo.svg">
  <defs
     id="defs3847" />
  <sodipodi:namedview
     id="base"
     pagecolor="#ffffff"
     bordercolor="#666666"
     borderopacity="1.0"
     inkscape:pageopacity="0.0"
     inkscape:pageshadow="2"
     inkscape:zoom="1.979899"
     inkscape:cx="14.690796"
     inkscape:cy="152.3851"
     inkscape:document-units="px"
     inkscape:current-layer="layer1"
     showgrid="false"
     inkscape:window-width="1680"
     inkscape:window-height="985"
     inkscape:window-x="0"
     inkscape:window-y="62"
     inkscape:window-maximized="0" />
  <metadata
     id="metadata3850">
    <rdf:RDF>
      <cc:Work
         rdf:about="">
        <dc:format>image/svg+xml</dc:format>
        <dc:type
           rdf:resource="http://purl.org/dc/dcmitype/StillImage" />
        <dc:title></dc:title>
      </cc:Work>
    </rdf:RDF>
  </metadata>
  <g
     inkscape:label="Layer 1"
     inkscape:groupmode="layer"
     id="layer1"
     transform="translate(0,-877.36218)">
    <path
       style="fill:#000000;fill-opacity:1;stroke:none;display:inline"
       d="m 76.44815,879.86463 c -2.539485,-0.0432 -5.13297,0.47345 -7.593893,1.60801 -8.749955,4.03396 -12.570783,14.39373 -8.536809,23.14369 4.033962,8.74997 14.393724,12.57077 23.14368,8.53681 8.749955,-4.03398 12.579182,-14.39373 8.545243,-23.14368 -2.899419,-6.28903 -9.068458,-10.03427 -15.558221,-10.14483 z m 20.567498,49.44447 c -2.024775,-0.0344 -4.091087,0.37508 -6.05324,1.27968 -6.976492,3.21635 -10.027268,11.48626 -6.81092,18.46275 3.216348,6.97648 11.486258,10.01886 18.462752,6.80251 6.97649,-3.21636 10.01885,-11.47783 6.80251,-18.45433 -2.31175,-5.01435 -7.22672,-8.00245 -12.401102,-8.09061 z m -40.520402,0.0589 c -5.420321,-0.0618 -10.609864,3.071 -12.914671,8.35158 -3.073073,7.04077 0.140586,15.23815 7.181356,18.31122 7.040794,3.07306 15.238144,-0.14059 18.311217,-7.18138 3.073072,-7.04077 -0.140586,-15.24654 -7.181357,-18.31962 -1.760201,-0.76826 -3.589779,-1.14122 -5.396545,-1.1618 z m 57.257264,45.85799 c -1.80599,0.0576 -3.6356,0.4756 -5.37971,1.27968 -6.97649,3.21635 -10.027272,11.47785 -6.81092,18.45433 3.21633,6.9765 11.48624,10.0189 18.46269,6.8025 6.97656,-3.2164 10.01888,-11.47785 6.80252,-18.45433 -2.41219,-5.23235 -7.65662,-8.25476 -13.07458,-8.08218 z m -73.724724,0.47989 c -5.420321,-0.0618 -10.609864,3.06259 -12.914671,8.34316 -3.073072,7.04074 0.140586,15.23806 7.181356,18.31116 7.040782,3.0731 15.238144,-0.1406 18.311217,-7.18136 3.073072,-7.04072 -0.140586,-15.23808 -7.181357,-18.31115 -1.760201,-0.76827 -3.589779,-1.14123 -5.396545,-1.16181 z m 35.570047,27.26892 c -2.265067,0.072 -4.556084,0.5911 -6.743576,1.5996 -8.749955,4.0339 -12.570783,14.4021 -8.536809,23.1521 4.033962,8.75 14.393724,12.5708 23.14368,8.5369 8.749955,-4.0341 12.579182,-14.4021 8.545243,-23.1521 -3.025474,-6.5624 -9.613346,-10.3529 -16.408538,-10.1364 z m 63.613647,18.1596 c -1.806,0.058 -3.63571,0.4757 -5.37982,1.2797 -6.97645,3.2164 -10.01876,11.4778 -6.80251,18.4545 3.21637,6.9764 11.47786,10.0272 18.45442,6.8108 6.97645,-3.2164 10.01877,-11.4863 6.80251,-18.4628 -2.4123,-5.2322 -7.65673,-8.2547 -13.0746,-8.0822 z m -123.699672,0.9009 c -5.42032,-0.062 -10.6098513,3.071 -12.9146702,8.3516 -3.07307243,7.0407 0.1405976,15.2381 7.181368,18.3113 7.0407812,3.0731 15.2381322,-0.1489 18.3112042,-7.1899 3.073084,-7.0408 -0.140586,-15.2382 -7.181356,-18.3112 -1.760202,-0.7683 -3.58978,-1.1412 -5.396546,-1.1618 z"
       id="path3065"
       inkscape:connector-curvature="0" />
  </g>
</svg>
