<?xml version="1.0" encoding="UTF-8" standalone="no"?>
<!-- Created with Inkscape (http://www.inkscape.org/) -->

<svg
   xmlns:dc="http://purl.org/dc/elements/1.1/"
   xmlns:cc="http://creativecommons.org/ns#"
   xmlns:rdf="http://www.w3.org/1999/02/22-rdf-syntax-ns#"
   xmlns:svg="http://www.w3.org/2000/svg"
   xmlns="http://www.w3.org/2000/svg"
   xmlns:sodipodi="http://sodipodi.sourceforge.net/DTD/sodipodi-0.dtd"
   xmlns:inkscape="http://www.inkscape.org/namespaces/inkscape"
   width="130"
   height="145"
   id="svg3845"
   version="1.1"
   inkscape:version="0.48.5 r10040"
   sodipodi:docname="logo.svg">
  <defs
     id="defs3847" />
  <sodipodi:namedview
     id="base"
     pagecolor="#ffffff"
     bordercolor="#666666"
     borderopacity="1.0"
     inkscape:pageopacity="0.0"
     inkscape:pageshadow="2"
     inkscape:zoom="1.979899"
     inkscape:cx="14.690796"
     inkscape:cy="111.979"
     inkscape:document-units="px"
     inkscape:current-layer="layer1"
     showgrid="false"
     inkscape:window-width="1680"
     inkscape:window-height="985"
     inkscape:window-x="0"
     inkscape:window-y="62"
     inkscape:window-maximized="0" />
  <metadata
     id="metadata3850">
    <rdf:RDF>
      <cc:Work
         rdf:about="">
        <dc:format>image/svg+xml</dc:format>
        <dc:type
           rdf:resource="http://purl.org/dc/dcmitype/StillImage" />
        <dc:title></dc:title>
      </cc:Work>
    </rdf:RDF>
  </metadata>
  <g
     inkscape:label="Layer 1"
     inkscape:groupmode="layer"
     id="layer1"
     transform="translate(0,-907.36218)">
    <path
       style="opacity:0.15;fill:#ffffff;fill-opacity:1;stroke:none;display:inline"
       d="m 64.104568,907.50427 c -2.16185,-0.0368 -4.36967,0.40305 -6.46464,1.36889 -7.44879,3.43409 -10.70144,12.25331 -7.26734,19.7021 3.43409,7.4488 12.2533,10.70143 19.70209,7.26734 7.44879,-3.4341 10.70859,-12.2533 7.27452,-19.70209 -2.46826,-5.35382 -7.71993,-8.54212 -13.24463,-8.63624 z m 17.509,42.09181 c -1.72368,-0.0293 -3.48272,0.31931 -5.15309,1.08939 -5.93905,2.73806 -8.53616,9.77819 -5.7981,15.71724 2.73806,5.93904 9.77819,8.529 15.71724,5.79094 5.93905,-2.73807 8.52899,-9.77102 5.79094,-15.71007 -1.96798,-4.26869 -6.15207,-6.81245 -10.55699,-6.8875 z m -34.4948,0.0501 c -4.61429,-0.0526 -9.03212,2.61433 -10.99419,7.10966 -2.61609,5.99377 0.11968,12.97215 6.11345,15.58824 5.99379,2.61608 12.97215,-0.11968 15.58824,-6.11347 2.61609,-5.99377 -0.11968,-12.9793 -6.11345,-15.59539 -1.49845,-0.65402 -3.05596,-0.97152 -4.59405,-0.98904 z m 48.7428,39.03866 c -1.53743,0.049 -3.09497,0.40488 -4.57972,1.08939 -5.93905,2.73806 -8.53616,9.77103 -5.7981,15.71007 2.73805,5.9391 9.77818,8.529 15.717192,5.7909 5.93911,-2.738 8.52902,-9.771 5.79095,-15.71004 -2.05349,-4.45427 -6.51804,-7.02723 -11.130322,-6.88032 z m -62.76146,0.40853 c -4.61429,-0.0526 -9.03212,2.60717 -10.99419,7.10249 -2.61609,5.99374 0.11968,12.97214 6.11345,15.58824 5.99378,2.6161 12.97215,-0.1197 15.58824,-6.1135 2.61609,-5.99373 -0.11968,-12.9721 -6.11345,-15.58819 -1.49845,-0.65402 -3.05596,-0.97152 -4.59405,-0.98904 z m 30.28059,23.21393 c -1.92824,0.061 -3.87857,0.5032 -5.74077,1.3617 -7.44879,3.4341 -10.70144,12.2605 -7.26734,19.7093 3.43409,7.4488 12.2533,10.7014 19.70209,7.2673 7.44879,-3.4341 10.70859,-12.2604 7.27452,-19.7092 -2.57557,-5.5866 -8.18379,-8.8134 -13.9685,-8.6291 z m 54.153952,15.4592 c -1.53744,0.049 -3.09506,0.4049 -4.57981,1.0894 -5.93901,2.7381 -8.52892,9.771 -5.79094,15.7101 2.73808,5.939 9.77104,8.5361 15.71015,5.7981 5.93901,-2.7381 8.52892,-9.7782 5.79094,-15.7173 -2.05358,-4.4542 -6.51813,-7.0272 -11.13034,-6.8803 z m -105.304862,0.7669 c -4.6142899,-0.053 -9.0321099,2.6143 -10.9941899,7.1097 -2.61609,5.9937 0.11969,12.9721 6.11346,15.5882 5.9937799,2.6161 12.9721399,-0.1268 15.5882299,-6.1206 2.6161,-5.9938 -0.11968,-12.9722 -6.11345,-15.5883 -1.49845,-0.654 -3.05596,-0.9715 -4.59405,-0.989 z"
       id="path3065"
       inkscape:connector-curvature="0" />
  </g>
</svg>
